<?xml version="1.0" encoding="UTF-8" standalone="no"?>
<svg
   xmlns:dc="http://purl.org/dc/elements/1.1/"
   xmlns:cc="http://creativecommons.org/ns#"
   xmlns:rdf="http://www.w3.org/1999/02/22-rdf-syntax-ns#"
   xmlns:svg="http://www.w3.org/2000/svg"
   xmlns="http://www.w3.org/2000/svg"
   viewBox="0 0 457.26666 109.81333"
   height="109.81333"
   width="457.26666"
   xml:space="preserve"
   id="svg2"
   version="1.1"><metadata
     id="metadata8"><rdf:RDF><cc:Work
         rdf:about=""><dc:format>image/svg+xml</dc:format><dc:type
           rdf:resource="http://purl.org/dc/dcmitype/StillImage" /></cc:Work></rdf:RDF></metadata><defs
     id="defs6"><clipPath
       id="clipPath34"
       clipPathUnits="userSpaceOnUse"><path
         id="path32"
         d="M 468.543,735.938 C 482.031,679.051 448.996,631.637 403.719,601.051 376.492,582.664 338.02,562.125 306.797,548.422 l 0.113,-1.024 C 186.094,492.008 210.02,454.457 255.223,365.523 l 3.586,-7.296 322.742,169.8 54.113,-101.293 C 654.992,361.602 619.16,302.246 541.848,266.883 467.82,227.723 418.746,200.871 403.34,153.457 c -5.102,-15.801 -0.231,-32.176 4.976,-53.273 3.997,-16.0785 16.832,-46.7192 31.016,-76.5317 155.066,11.3633 295.203,115.7307 343.969,272.8557 63.523,204.722 -51.692,423.519 -256.418,487.035 -30.379,9.445 -61.11,14.883 -91.586,16.715 z" /></clipPath><linearGradient
       id="linearGradient40"
       spreadMethod="pad"
       gradientTransform="matrix(582.406,0,0,-582.406,218.364,411.954)"
       gradientUnits="userSpaceOnUse"
       y2="0"
       x2="1"
       y1="0"
       x1="0"><stop
         id="stop36"
         offset="0"
         style="stop-opacity:1;stop-color:#b7b9bc" /><stop
         id="stop38"
         offset="1"
         style="stop-opacity:1;stop-color:#dfe3e6" /></linearGradient><clipPath
       id="clipPath50"
       clipPathUnits="userSpaceOnUse"><path
         id="path48"
         d="m 231.203,756.309 -2.711,-1.407 c -1.015,-0.574 -2.054,-1.136 -3.101,-1.672 C 148.754,711.023 85.6836,643.461 51.043,558.359 l -0.586,-1.379 c -0.8086,-1.984 -1.539,-3.972 -2.3203,-5.957 l -0.6836,-1.816 c -0.6992,-1.836 -1.375,-3.684 -2.039,-5.523 -0.4805,-1.418 -0.9727,-2.782 -1.4688,-4.176 -0.4648,-1.293 -0.9297,-2.59 -1.3476,-3.91 -0.9454,-2.809 -1.9063,-5.649 -2.7774,-8.5 C 2.44922,406.578 28.875,278.711 98.6445,180.875 146.215,116.215 213.98,65.5938 296.258,40.0742 c 39.461,-12.25 79.472,-17.789 118.758,-17.3711 -17.621,33.9453 -31.645,72.8399 -34.59,97.1099 -9.633,79.261 52.414,115.25 142.969,163.164 70.894,32.441 103.765,82.789 86.05,142.527 l -37.351,72.394 -324.719,-172.113 -3.32,6.707 c -41.465,80.742 -90.129,159.012 20.8,222.16 l -0.093,0.934 c 68.765,30.219 202.918,75.629 179.09,176.113 l -35.137,69.27 c -62.531,-0.547 -123.344,-16.281 -177.512,-44.66" /></clipPath><linearGradient
       id="linearGradient60"
       spreadMethod="pad"
       gradientTransform="matrix(591.32,0,0,-591.32,22.8477,411.826)"
       gradientUnits="userSpaceOnUse"
       y2="0"
       x2="1"
       y1="0"
       x1="0"><stop
         id="stop52"
         offset="0"
         style="stop-opacity:1;stop-color:#e85c2b" /><stop
         id="stop54"
         offset="0.245399"
         style="stop-opacity:1;stop-color:#e85c2b" /><stop
         id="stop56"
         offset="0.55858638"
         style="stop-opacity:1;stop-color:#e85c2b" /><stop
         id="stop58"
         offset="1"
         style="stop-opacity:1;stop-color:#e8532c" /></linearGradient></defs><g
     transform="matrix(1.3333333,0,0,-1.3333333,0,109.81333)"
     id="g10"><g
       transform="scale(0.1)"
       id="g12"><path
         id="path14"
         style="fill:#393c45;fill-opacity:1;fill-rule:evenodd;stroke:none"
         d="m 2842.08,346.113 c -3.93,-4.168 -9.35,-9.054 -16.39,-14.808 -8.85,-6.614 -15.91,-11.262 -21.17,-13.953 -29.34,-15.786 -61.98,-23.618 -97.41,-23.618 -35.59,0 -68.05,7.832 -97.59,23.618 -5.07,2.691 -12.12,7.339 -21.15,13.953 -7.06,5.754 -12.46,10.64 -16.4,14.808 -19.53,21.41 -29.19,44.797 -29.19,69.883 0,16.527 4.27,32.438 12.96,47.981 17.88,30.351 47.55,52.136 88.9,65.355 20.8,6.121 41.63,9.305 62.47,9.305 20.83,0 41.65,-3.184 62.48,-9.305 41.17,-13.219 70.85,-35.004 88.9,-65.355 8.51,-15.543 12.97,-31.454 12.97,-47.981 0,-25.086 -9.87,-48.473 -29.38,-69.883 z m 40.95,178.813 c -4.84,4.898 -11.17,10.656 -19.02,17.629 -11,8.324 -19.01,13.953 -24.28,16.886 -8.3,5.016 -15.39,8.938 -21.27,11.75 -10.26,5.024 -23.84,9.914 -40.73,14.809 -23.25,6.117 -46.78,9.309 -70.62,9.309 -24,0 -47.52,-3.192 -70.75,-9.309 -16.75,-4.895 -30.32,-9.785 -40.73,-14.809 -5.88,-2.812 -12.98,-6.734 -21.12,-11.75 -5.3,-2.933 -13.43,-8.562 -24.3,-16.886 -8,-6.973 -14.33,-12.731 -19.01,-17.629 -8,-8.813 -14.33,-16.883 -19,-24.356 -17.51,-26.929 -26.1,-54.824 -26.1,-83.468 v -2.196 c 0,-29.14 8.75,-57.406 26.53,-84.582 5.6,-8.441 12.99,-17.258 22.04,-26.558 8.3,-8.567 18.88,-17.375 31.84,-26.196 7.38,-4.773 14.02,-8.679 19.9,-11.867 37.12,-19.344 77.4,-29.012 120.7,-29.012 43.3,0 83.43,9.668 120.54,29.012 6.04,3.188 12.53,7.094 19.92,11.867 12.97,8.821 23.67,17.629 31.83,26.196 9.21,9.3 16.6,18.117 22.18,26.558 17.66,27.176 26.55,55.442 26.55,84.582 v 2.196 c 0,28.644 -8.75,56.539 -26.09,83.468 -4.83,7.473 -11.19,15.543 -19.01,24.356" /><path
         id="path16"
         style="fill:#393c45;fill-opacity:1;fill-rule:evenodd;stroke:none"
         d="m 2288.28,597.977 c -325.22,0 -121.13,-303.266 -388.61,-303.266 -8.94,0 -13.2,-3.305 -13.04,-10.027 v -36.969 c -0.47,-6.363 3.77,-9.668 13.04,-9.668 325.3,0 122.23,303.258 388.61,303.258 8.96,0 13.19,3.308 13.04,10.047 v 36.961 c 0.46,6.359 -3.77,9.664 -13.04,9.664" /><path
         id="path18"
         style="fill:#393c45;fill-opacity:1;fill-rule:evenodd;stroke:none"
         d="m 2414.27,595.668 h -31.45 c -8.3,0 -12.38,-3.059 -12.38,-9.059 V 246.707 c 0,-6.012 4.08,-9.059 12.38,-9.059 h 31.45 c 8.74,0 13.12,3.43 12.82,10.036 v 337.945 c 0.3,6.609 -4.08,10.039 -12.82,10.039" /><path
         id="path20"
         style="fill:#393c45;fill-opacity:1;fill-rule:evenodd;stroke:none"
         d="m 1859.59,595.309 -32.16,0.16 c -8.29,0.035 -12.36,-3.086 -12.36,-9.059 l 0.03,-173.004 c 0,-72.293 -83.82,-119.031 -162.12,-119.656 -78.31,0.625 -162.13,47.363 -162.11,119.656 l 0.01,173.004 c 0,5.973 -4.06,9.094 -12.36,9.059 l -32.16,-0.16 c -8.9,-0.051 -13.13,-3.43 -12.82,-10.047 V 414.164 c 0,-28.887 8.9,-56.91 26.55,-83.84 5.59,-8.441 12.99,-17.258 22.04,-26.558 8.3,-8.567 18.85,-17.375 31.83,-26.196 7.39,-4.773 14.03,-8.679 19.91,-11.867 36.5,-19.019 76.05,-28.687 118.55,-29 v -0.012 l 0.56,0.012 0.55,-0.012 v 0.012 c 42.51,0.313 82.06,9.981 118.55,29 5.9,3.188 12.53,7.094 19.93,11.867 12.96,8.821 23.53,17.629 31.84,26.196 9.03,9.3 16.42,18.117 22.02,26.558 17.64,26.93 26.54,54.953 26.54,83.84 v 171.098 c 0.3,6.617 -3.92,9.996 -12.82,10.047" /><path
         id="path22"
         style="fill:#393c45;fill-opacity:1;fill-rule:evenodd;stroke:none"
         d="m 3402.93,501.84 c -5.59,8.441 -12.97,17.258 -22.04,26.562 -8.28,8.567 -18.85,17.368 -31.82,26.184 -7.4,4.773 -14.05,8.699 -19.93,11.879 -36.5,19.015 -76.05,28.68 -118.54,29 v 0.004 l -0.57,-0.004 -0.54,0.004 v -0.004 c -42.5,-0.32 -82.07,-9.985 -118.57,-29 -5.88,-3.18 -12.51,-7.106 -19.9,-11.879 -12.98,-8.816 -23.54,-17.617 -31.83,-26.184 -9.06,-9.304 -16.45,-18.121 -22.04,-26.562 -17.66,-26.93 -26.55,-54.945 -26.55,-83.836 V 246.898 c -0.29,-6.605 3.93,-9.992 12.83,-10.039 l 32.16,-0.168 c 8.28,-0.031 12.36,3.102 12.36,9.067 l -0.03,173 c 0,72.305 83.81,119.039 162.11,119.66 78.31,-0.621 162.14,-47.355 162.12,-119.66 l -0.02,-173 c 0,-5.965 4.06,-9.098 12.36,-9.067 l 32.16,0.168 c 8.91,0.047 13.13,3.434 12.83,10.039 v 171.106 c 0,28.891 -8.91,56.906 -26.55,83.836" /><path
         id="path24"
         style="fill:#393c45;fill-opacity:1;fill-rule:evenodd;stroke:none"
         d="M 1355.89,595.813 H 1184.8 c -28.91,0 -56.92,-8.895 -83.86,-26.551 -8.44,-5.582 -17.25,-12.965 -26.55,-22.028 -8.57,-8.289 -17.39,-18.851 -26.2,-31.832 -4.76,-7.386 -8.69,-14.019 -11.86,-19.91 -18.38,-35.254 -28.03,-73.359 -28.93,-114.215 l 0.93,-136.23 c -0.3,-6.567 3.92,-9.93 12.77,-9.977 l 31.65,-0.011 c 8.13,-0.004 12.31,3.07 12.31,9 l -0.57,137.218 0.04,1.172 h 215.9 c 6.01,0 9.06,4.078 9.06,12.383 v 31.441 c 0,8.75 -3.44,13.122 -10.03,12.817 h -204.93 c 17.49,54.664 56.66,99.414 109.52,99.41 l 172.99,-0.027 c 5.97,0 9.09,4.082 9.06,12.379 l -0.18,32.144 c -0.03,8.899 -3.41,13.121 -10.03,12.817" /><path
         id="path26"
         style="fill:#ffffff;fill-opacity:1;fill-rule:nonzero;stroke:none"
         d="m 411.801,0 c 226.832,0 411.824,185 411.824,411.82 0,226.821 -184.992,411.797 -411.824,411.797 C 185.012,823.617 0,638.641 0,411.82 0,185 185.012,0 411.801,0" /><g
         id="g28"><g
           clip-path="url(#clipPath34)"
           id="g30"><path
             id="path42"
             style="fill:url(#linearGradient40);fill-opacity:1;fill-rule:nonzero;stroke:none"
             d="M 468.543,735.938 C 482.031,679.051 448.996,631.637 403.719,601.051 376.492,582.664 338.02,562.125 306.797,548.422 l 0.113,-1.024 C 186.094,492.008 210.02,454.457 255.223,365.523 l 3.586,-7.296 322.742,169.8 54.113,-101.293 C 654.992,361.602 619.16,302.246 541.848,266.883 467.82,227.723 418.746,200.871 403.34,153.457 c -5.102,-15.801 -0.231,-32.176 4.976,-53.273 3.997,-16.0785 16.832,-46.7192 31.016,-76.5317 155.066,11.3633 295.203,115.7307 343.969,272.8557 63.523,204.722 -51.692,423.519 -256.418,487.035 -30.379,9.445 -61.11,14.883 -91.586,16.715 l 33.246,-64.32" /></g></g><g
         id="g44"><g
           clip-path="url(#clipPath50)"
           id="g46"><path
             id="path62"
             style="fill:url(#linearGradient60);fill-opacity:1;fill-rule:nonzero;stroke:none"
             d="m 231.203,756.309 -2.711,-1.407 c -1.015,-0.574 -2.054,-1.136 -3.101,-1.672 C 148.754,711.023 85.6836,643.461 51.043,558.359 l -0.586,-1.379 c -0.8086,-1.984 -1.539,-3.972 -2.3203,-5.957 l -0.6836,-1.816 c -0.6992,-1.836 -1.375,-3.684 -2.039,-5.523 -0.4805,-1.418 -0.9727,-2.782 -1.4688,-4.176 -0.4648,-1.293 -0.9297,-2.59 -1.3476,-3.91 -0.9454,-2.809 -1.9063,-5.649 -2.7774,-8.5 C 2.44922,406.578 28.875,278.711 98.6445,180.875 146.215,116.215 213.98,65.5938 296.258,40.0742 c 39.461,-12.25 79.472,-17.789 118.758,-17.3711 -17.621,33.9453 -31.645,72.8399 -34.59,97.1099 -9.633,79.261 52.414,115.25 142.969,163.164 70.894,32.441 103.765,82.789 86.05,142.527 l -37.351,72.394 -324.719,-172.113 -3.32,6.707 c -41.465,80.742 -90.129,159.012 20.8,222.16 l -0.093,0.934 c 68.765,30.219 202.918,75.629 179.09,176.113 l -35.137,69.27 c -62.531,-0.547 -123.344,-16.281 -177.512,-44.66" /></g></g></g></g></svg>